<svg xmlns="http://www.w3.org/2000/svg" xmlns:xlink="http://www.w3.org/1999/xlink" viewBox="0 0 5761.64 193.57"><defs><style>.cls-1{fill:url(#linear-gradient);}.cls-2{fill:url(#linear-gradient-2);}</style><linearGradient id="linear-gradient" y1="87.47" x2="5761.64" y2="87.47" gradientUnits="userSpaceOnUse"><stop offset="0" stop-color="#d7a84f"/><stop offset="0.05" stop-color="#e6c062"/><stop offset="0.13" stop-color="#ffe983"/><stop offset="0.27" stop-color="#d7a84f"/><stop offset="0.33" stop-color="#e6c062"/><stop offset="0.41" stop-color="#ffe983"/><stop offset="0.53" stop-color="#ffffc5"/><stop offset="0.69" stop-color="#ffe983"/><stop offset="0.83" stop-color="#d7a84f"/><stop offset="0.87" stop-color="#dfba67"/><stop offset="0.96" stop-color="#f4e7a4"/><stop offset="1" stop-color="#ffffc5"/></linearGradient><linearGradient id="linear-gradient-2" x1="1837.16" y1="1001.56" x2="1837.16" y2="1002.56" gradientTransform="matrix(5760, 0, 0, -190.96, -10579173.58, 191451.89)" gradientUnits="userSpaceOnUse"><stop offset="0" stop-color="#f8cbbc"/><stop offset="1" stop-color="#f4b6a1"/></linearGradient></defs><g id="Layer_3" data-name="Layer 3"><path class="cls-1" d="M3600.63,175c-78.79,0-160.27,0-240.53-17.56-50.15-11-101.07-29.07-150.3-46.57-29.48-10.48-60-21.31-89.9-30.48-89.4-27.38-167.6-37.65-239.05-31.4-29.88,2.61-60.32,8.27-89.76,13.75-49.33,9.17-100.34,18.65-150.67,14.25-36.61-3.2-73.7-13.83-109.56-24.1C2488.12,40.6,2443.92,28,2400.63,28c-47.61,0-96.23,15.31-143.24,30.12-31.55,9.94-64.16,20.21-96.32,25.84a390.57,390.57,0,0,1-67.47,5.65c-61.61,0-121.12-12.92-173.6-26.69-12.32-3.24-24.84-6.69-37-10-66.32-18.3-134.9-37.22-202.09-28.4-51.41,6.74-103.87,30-154.61,52.43-27.81,12.3-56.56,25-84.89,35-77.58,27.15-158.72,35.44-241.15,24.62C1143,128.9,1084.79,112.17,1028.52,96c-22.47-6.45-45.69-13.13-68.52-19.12-71-18.63-154.81-35.68-238.93-21-29,5.07-58.45,14-87,22.61-44.33,13.4-90,27.2-135.4,27.2q-9.15,0-18.27-.78c-45.2-4-90.94-23.65-135.17-42.69C310.74,47.4,275.07,32,240.1,24.39,160.69,7,80,28.19,41.27,38.37l-40,10.5L0,44l40-10.5c39.14-10.27,120.58-31.65,201.17-14,35.43,7.75,71.33,23.2,106.05,38.15,43.87,18.88,89.23,38.41,133.63,42.3,50.43,4.41,102-11.17,151.79-26.23C661.31,65.07,691,56.1,720.2,51c85.07-14.89,169.6,2.28,241.07,21,22.88,6,46.14,12.69,68.63,19.16C1086,107.32,1144,124,1201,131.47c81.65,10.72,162,2.51,238.85-24.38,28.14-9.85,56.8-22.54,84.52-34.81,51.06-22.6,103.86-46,156-52.81,68.2-8.95,137.27,10.11,204.07,28.54,12.09,3.34,24.6,6.79,36.89,10,71,18.62,154.81,35.68,238.93,21,31.84-5.58,64.3-15.8,95.68-25.69C2303.26,38.38,2352.25,23,2400.63,23c44,0,88.53,12.75,131.6,25.09,35.64,10.2,72.5,20.76,108.62,23.92,49.66,4.34,100.33-5.08,149.33-14.19,29.55-5.49,60.12-11.18,90.24-13.81,72.1-6.31,150.91,4,240.95,31.6,30.05,9.2,60.58,20,90.1,30.55,49.09,17.45,99.85,35.49,149.7,46.4C3440.9,170,3522.11,170,3600.63,170s159.84,0,239.68-10.48c79.42-10.42,160-31.57,239.41-62.85,21.78-8.57,44-18.1,65.38-27.3,57.34-24.63,116.63-50.1,175.1-60.33,53.62-9.39,108-6.22,160.58-3.15C4507,7.37,4534,9,4560.63,9c31.92,0,64.41-2.28,95.83-4.48,47.29-3.31,96.2-6.73,144.39-2.51,68.84,6,138.69,27.85,206.24,49,11.24,3.51,22.85,7.14,34.28,10.64,96.68,29.61,170.57,46.85,239.59,55.91,87.19,11.44,165.41,9.16,239.14-7,79.76-17.45,160.66-52.84,199.53-69.85l40-17.5,2,4.58-40,17.5c-39,17.07-120.23,52.6-200.47,70.15-74.31,16.25-153.09,18.56-240.86,7-69.3-9.1-143.45-26.4-240.41-56.09-11.43-3.5-23.06-7.14-34.3-10.65-67.29-21-136.88-42.77-205.18-48.75-47.81-4.18-96.51-.77-143.61,2.52-31.51,2.21-64.09,4.49-96.18,4.49-26.73,0-53.89-1.59-80.14-3.12-52.3-3-106.38-6.2-159.43,3.08-57.89,10.13-116.91,35.48-174,60-21.48,9.22-43.68,18.76-65.53,27.36C4001.73,132.7,3920.79,154,3841,164.43,3760.8,175,3679.38,175,3600.63,175Z"/><path class="cls-2" d="M.51,46.57l40-10.5c40-10.5,120-31.5,200-14s160,73.5,240,80.5,160-35,240-49,160,0,240,21,160,49,240,59.5,160,3.5,240-24.5,160-77,240-87.5,160,17.5,240,38.5,160,35,240,21,160-56,240-56,160,42,240,49,160-21,240-28,160,7,240,31.5,160,59.5,240,77,160,17.5,240,17.5,160,0,240-10.5,160-31.5,240-63,160-73.5,240-87.5,160,0,240,0,160-14,240-7,160,35,240,59.5,160,45.5,240,56,160,10.5,240-7,160-52.5,200-70l40-17.5v168H.51Z"/></g></svg>