<svg xmlns="http://www.w3.org/2000/svg" xmlns:xlink="http://www.w3.org/1999/xlink" viewBox="0 0 5761.46 196.76"><defs><style>.cls-1{fill:url(#linear-gradient);}.cls-2{fill:url(#linear-gradient-2);}</style><linearGradient id="linear-gradient" y1="119.37" x2="5761.46" y2="119.37" gradientUnits="userSpaceOnUse"><stop offset="0" stop-color="#d7a84f"/><stop offset="0.05" stop-color="#e6c062"/><stop offset="0.13" stop-color="#ffe983"/><stop offset="0.27" stop-color="#d7a84f"/><stop offset="0.33" stop-color="#e6c062"/><stop offset="0.41" stop-color="#ffe983"/><stop offset="0.53" stop-color="#ffffc5"/><stop offset="0.69" stop-color="#ffe983"/><stop offset="0.83" stop-color="#d7a84f"/><stop offset="0.87" stop-color="#dfba67"/><stop offset="0.96" stop-color="#f4e7a4"/><stop offset="1" stop-color="#ffffc5"/></linearGradient><linearGradient id="linear-gradient-2" x1="1837.39" y1="-170.16" x2="1837.39" y2="-169.16" gradientTransform="matrix(-5760, 0, 0, 193.84, 10586262.68, 32984.31)" gradientUnits="userSpaceOnUse"><stop offset="0" stop-color="#f8cbbc"/><stop offset="1" stop-color="#f4b6a1"/></linearGradient></defs><g id="Layer_2" data-name="Layer 2"><path class="cls-1" d="M2036.89,196.76c-37.48,0-76.94-5-116.53-18.87-38.21-13.37-77-35-114.52-56-41.13-23-83.67-46.71-125.42-59.5-85.21-26.1-168.7-7.57-239.12,14-24,7.34-48.36,15.77-72,23.93-55.13,19-112.14,38.75-168.29,46.13-62.41,8.18-125.76,1.41-187-5.14-17.47-1.87-35.54-3.8-53.3-5.36-71.71-6.27-150.15-7.42-239.8-3.49S552.83,144.41,481.12,157c-12.3,2.15-24.81,4.51-36.91,6.79-66.7,12.57-135.68,25.57-203.67,10.69C160.25,156.88,79,100,40,72.71l-40-28,1.72-2.46,40,28c38.87,27.21,119.75,83.83,199.46,101.26,67.39,14.74,136.07,1.8,202.48-10.71,12.11-2.29,24.62-4.64,36.94-6.8,71.84-12.57,150.41-20.59,240.19-24.52S889.15,126.7,961,133c17.79,1.56,35.88,3.49,53.36,5.36,61.1,6.54,124.27,13.29,186.32,5.15,55.84-7.33,112.71-27,167.7-46,23.61-8.16,48-16.6,72.05-24,46.5-14.24,84.73-22.32,120.31-25.43,43.56-3.81,83-.07,120.57,11.43,42.06,12.88,84.73,36.71,126,59.76,37.4,20.88,76.07,42.47,114,55.76,86.91,30.42,173.47,17.83,239.18,3.45,47.95-10.49,96.72-25,143.89-39,31.48-9.36,64-19,96.05-27.45a1445.57,1445.57,0,0,1,240.25-42c86.24-7.54,164.85-6.39,240.33,3.51,40,5.26,80.74,13.27,120.09,21s79.95,15.74,119.91,21a921.27,921.27,0,0,0,239.6,0c40-5.24,80.6-13.24,119.91-21s80-15.76,120.09-21c93-12.21,169.47-7.74,240.64,14.05,29.54,9,59.55,21.63,88.56,33.78C3979.44,142.1,4030.7,163.58,4081,168c59.71,5.23,120.57-13.41,179.43-31.44,19.68-6,40-12.25,60.06-17.51,77.05-20.23,155.7-28.25,240.45-24.55,24,1,48.44,3.08,72,5,55,4.57,111.85,9.3,167.68,2,39.9-5.23,80.51-16.78,119.79-27.95s80.11-22.78,120.21-28.05c76.53-10,155.27,1.44,240.75,35.09,23.57,9.28,47.51,20.25,70.66,30.86,55.41,25.38,112.71,51.62,168.92,56.54,79.63,7,160.43-28.39,199.27-45.38l40-17.5,1.2,2.75-40,17.5C5682.4,142.44,5601.11,178,5520.73,171c-56.73-5-114.26-31.32-169.91-56.81-23.11-10.59-47-21.54-70.51-30.79-85-33.46-163.25-44.88-239.25-34.9-39.9,5.23-80.51,16.78-119.79,28s-80.11,22.78-120.21,28.05c-56.17,7.37-113.18,2.63-168.32-2-23.59-2-48-4-71.95-5-84.44-3.7-162.79,4.3-239.55,24.45-20,5.24-40.29,11.46-59.94,17.48C4202.17,157.52,4141,176.25,4080.73,171c-50.76-4.44-102.24-26-152-46.88-28.95-12.13-58.88-24.67-88.28-33.68-70.74-21.66-146.8-26.1-239.36-13.94-40,5.24-80.6,13.24-119.91,21s-80.05,15.76-120.09,21a924.77,924.77,0,0,1-240.4,0c-40-5.26-80.74-13.27-120.09-21s-80-15.74-119.9-21C2805.41,66.59,2727,65.45,2641,73a1442.83,1442.83,0,0,0-239.75,42c-32,8.39-64.5,18.07-95.95,27.43-47.22,14-96.06,28.57-144.11,39.08C2124.94,189.37,2082.38,196.76,2036.89,196.76Z"/><path class="cls-2" d="M5760.56,105l-40,17.5c-40,17.5-120,52.5-200,45.5s-160-56-240-87.5-160-45.5-240-35-160,45.5-240,56-160-3.5-240-7-160,3.5-240,24.5-160,56-240,49-160-56-240-80.5-160-24.5-240-14-160,31.5-240,42a918.22,918.22,0,0,1-240,0c-80-10.5-160-31.5-240-42s-160-10.5-240-3.5a1437.42,1437.42,0,0,0-240,42c-80,21-160,49-240,66.5s-160,24.5-240-3.5-160-91-240-115.5-160-10.5-240,14-160,59.5-240,70-160-3.5-240-10.5-160-7-240-3.5-160,10.5-240,24.5-160,35-240,17.5S80.56,98,40.56,70L.56,42V0h5760Z"/></g></svg>