<svg xmlns="http://www.w3.org/2000/svg" xmlns:xlink="http://www.w3.org/1999/xlink" viewBox="0 0 5760 178.84"><defs><style>.cls-1{fill:url(#linear-gradient);}.cls-2{fill:url(#linear-gradient-2);}</style><linearGradient id="linear-gradient" x1="-0.26" y1="75.64" x2="5761.2" y2="75.64" gradientUnits="userSpaceOnUse"><stop offset="0" stop-color="#d7a84f"/><stop offset="0.05" stop-color="#e6c062"/><stop offset="0.13" stop-color="#ffe983"/><stop offset="0.27" stop-color="#d7a84f"/><stop offset="0.33" stop-color="#e6c062"/><stop offset="0.41" stop-color="#ffe983"/><stop offset="0.53" stop-color="#ffffc5"/><stop offset="0.69" stop-color="#ffe983"/><stop offset="0.83" stop-color="#d7a84f"/><stop offset="0.87" stop-color="#dfba67"/><stop offset="0.96" stop-color="#f4e7a4"/><stop offset="1" stop-color="#ffffc5"/></linearGradient><linearGradient id="linear-gradient-2" x1="1836.97" y1="159.18" x2="1836.97" y2="160.18" gradientTransform="matrix(5760, 0, 0, -175.88, -10578047.37, 28174.78)" gradientUnits="userSpaceOnUse"><stop offset="0" stop-color="#f8cbbc"/><stop offset="1" stop-color="#f4b6a1"/></linearGradient></defs><g id="Layer_2" data-name="Layer 2"><path class="cls-1" d="M3645.63,151.29c-15.28,0-30.55-.29-45.76-.95-79.88-3.5-160.88-17.67-240.75-42.13-20-6.14-40.4-13-60.08-19.72-58.8-19.93-119.6-40.55-179.17-43.15-55-2.41-111.09,10.43-165.35,22.85-24.25,5.55-49.31,11.29-74,15.61-77.21,13.51-156,14.66-240.91,3.52-60.14-7.9-121.22-21.93-180.28-35.49-19.66-4.52-40-9.19-60-13.56C2323.19,21.61,2242,6.53,2160.52,20.8c-37.42,6.54-75.59,19.51-112.5,32.05-41.78,14.19-85,28.87-127.63,34.47-45.33,5.94-91.25,1.8-135.66-2.21-34.32-3.09-69.8-6.29-104.6-4.77-32.75,1.43-66.15,7.1-98.45,12.59-46.46,7.89-94.5,16-141.94,11.9-38.4-3.36-77.28-14.86-114.88-26-41-12.13-83.45-24.68-125-26.5-62.3-2.72-125.94,18.55-187.49,39.13-16.87,5.64-34.32,11.48-51.5,16.74C876,134.2,797.2,146.84,720,146.84c-80,0-161-14.19-241-42.17-29.17-10.21-58.79-22.46-87.43-34.3-49.94-20.66-101.57-42-152.22-53.1C159.8-.13,79.06,6.93,40.26,10.33l-40,3.5-.52-6,40-3.5C78.84.93,160.19-6.19,240.64,11.41,291.81,22.6,343.7,44.07,393.87,64.82,422.44,76.64,452,88.86,481,99c79.31,27.76,159.72,41.83,239,41.83,76.6,0,154.82-12.55,239.12-38.37,17.11-5.24,34.52-11.06,51.36-16.69,62.06-20.75,126.24-42.21,189.65-39.44,42.27,1.85,85.06,14.51,126.44,26.75,37.31,11,75.9,22.46,113.69,25.76,46.68,4.09,94.33-4,140.41-11.84,32.48-5.51,66.07-11.22,99.2-12.67,35.2-1.54,70.89,1.68,105.4,4.8,44.08,4,89.67,8.09,134.34,2.23,42.06-5.52,85-20.1,126.48-34.2,37.13-12.62,75.52-25.66,113.39-32.28,82.56-14.45,164.41.73,241.16,17.52,20,4.38,40.36,9.05,60,13.57,58.93,13.53,119.86,27.53,179.72,35.39,84.29,11.06,162.5,9.92,239.09-3.48,24.54-4.3,49.53-10,73.7-15.55,54.65-12.5,111.16-25.43,167-23C3180.56,42,3241.77,62.74,3301,82.81c19.65,6.66,40,13.55,59.92,19.66,79.38,24.31,159.88,38.4,239.25,41.87,59.85,2.62,120.78-.71,179.71-3.93,19.67-1.08,40-2.19,60-3.07,11.44-.5,23.06-.93,34.3-1.35,67.26-2.53,136.82-5.13,205.07-23.05,26.55-7,53.6-16.44,79.77-25.6,52.68-18.43,107.15-37.5,161-37.5,42.14,0,84.78,11.68,126,23,37.46,10.26,76.2,20.87,114.12,22.53,39.63,1.74,80.13-6.23,119.29-13.94,39.5-7.78,80.34-15.82,120.71-14.06,44.39,2,89.31,15.8,132.75,29.2,35.28,10.88,71.76,22.14,107.51,26.83,79.42,10.42,160.47-10.86,238.85-31.43,78.91-20.71,160.5-42.14,241-35.09s161.85,42.64,200.94,59.74l40,17.5-2.4,5.5-40-17.5c-38.81-17-119.55-52.3-199.06-59.26s-160.57,14.33-239,34.91c-64.55,17-130.91,34.36-197,34.37a339.93,339.93,0,0,1-44.13-2.79c-36.25-4.76-73-16.09-108.5-27-43.08-13.29-87.63-27-131.24-28.94-39.63-1.74-80.13,6.24-119.29,13.94-39.5,7.78-80.34,15.82-120.71,14.06-38.6-1.69-77.67-12.39-115.45-22.74-40.84-11.19-83.08-22.76-124.42-22.76-52.82,0-106.81,18.89-159,37.17-26.28,9.19-53.45,18.7-80.23,25.73C4011.87,136.83,3942,139.45,3874.4,142c-11.23.42-22.85.86-34.27,1.36-20,.87-40.31,2-60,3.06C3736,148.81,3690.78,151.29,3645.63,151.29Z"/><path class="cls-2" d="M0,10.84l40-3.5c40-3.5,120-10.5,200,7s160,59.5,240,87.5,160,42,240,42,160-14,240-38.5,160-59.5,240-56,160,45.5,240,52.5,160-21,240-24.5,160,17.5,240,7,160-52.5,240-66.5,160,0,240,17.5,160,38.5,240,49,160,10.5,240-3.5,160-42,240-38.5,160,38.5,240,63,160,38.5,240,42,160-3.5,240-7,160-3.5,240-24.5,160-63,240-63,160,42,240,45.5,160-31.5,240-28,160,45.5,240,56,160-10.5,240-31.5,160-42,240-35,160,42,200,59.5l40,17.5v42H0Z"/></g></svg>