<svg xmlns="http://www.w3.org/2000/svg" xmlns:xlink="http://www.w3.org/1999/xlink" viewBox="0 0 5760 191"><defs><style>.cls-1{fill:url(#linear-gradient);}.cls-2{clip-path:url(#clip-path);}.cls-3{opacity:0.7;}.cls-4{fill:url(#linear-gradient-4);}</style><linearGradient id="linear-gradient" x1="-1.08" y1="103.59" x2="5761.08" y2="103.59" gradientUnits="userSpaceOnUse"><stop offset="0" stop-color="#d7a84f"/><stop offset="0.05" stop-color="#e6c062"/><stop offset="0.13" stop-color="#ffe983"/><stop offset="0.27" stop-color="#d7a84f"/><stop offset="0.33" stop-color="#e6c062"/><stop offset="0.41" stop-color="#ffe983"/><stop offset="0.53" stop-color="#ffffc5"/><stop offset="0.69" stop-color="#ffe983"/><stop offset="0.83" stop-color="#d7a84f"/><stop offset="0.87" stop-color="#dfba67"/><stop offset="0.96" stop-color="#f4e7a4"/><stop offset="1" stop-color="#ffffc5"/></linearGradient><clipPath id="clip-path"><path class="cls-1" d="M1832.06,189c-56.7,0-105.69-6-152.51-18.27-32.13-8.44-64.74-20.42-96.27-32-47-17.28-95.68-35.16-143.35-41.42-42-5.52-85-2.2-126.44,1-37.14,2.87-75.54,5.83-113.43,2.52-46-4-92.63-17.43-137.72-30.39-33.63-9.67-68.41-19.67-102.54-25.65-74.93-13.11-153-8.55-238.72,13.95C685.63,68,649.53,80.32,614.62,92.2c-43.78,14.9-89,30.3-133.66,40.06-82.51,18.05-163.73,16.86-241.41-3.53C159.22,107.64,78,65,38.92,44.48l-40-21,2.79-5.31,40,21c38.85,20.4,119.7,62.84,199.37,83.76,76.75,20.14,157,21.31,238.6,3.47,44.27-9.69,89.38-25,133-39.88,35-11.91,71.22-24.23,106.87-33.59C806.11,30.21,885,25.61,960.83,38.87c34.45,6,69.39,16.08,103.17,25.79,44.81,12.88,91.15,26.2,136.58,30.18,37.4,3.27,75.55.33,112.45-2.52,41.79-3.23,85-6.57,127.68-1,48.33,6.35,97.29,24.34,144.64,41.74,31.4,11.54,63.87,23.47,95.73,31.84,68.81,18.06,142.51,22.35,239,13.91,85.91-7.52,164.22-22.36,239.38-45.38,16-4.89,32.21-10.29,47.93-15.52,63.22-21,128.59-42.76,193.21-37.1,44,3.85,88.6,20.51,131.7,36.63,35.62,13.31,72.46,27.09,108.55,33.4,56.68,9.92,114.55,2,170.51-5.73,22.51-3.09,45.78-6.29,68.72-8.3,35.67-3.12,71.88-3.47,106.89-3.81,43.62-.43,88.71-.87,133-6.68,30.64-4,61.87-10.74,92.06-17.25,48.56-10.46,98.78-21.27,148.33-21.27,42.94,0,86.46,8.12,128.55,16,36.6,6.83,74.46,13.9,111.58,15.52,69.59,3,140.57-12.87,209.21-28.26,9.84-2.2,20-4.48,30-6.67,97-21.22,171.18-32,240.51-35.07,48.13-2.1,97-.39,144.24,1.26,31.44,1.1,63.95,2.24,95.9,2.24,20,0,40.28-.45,59.93-.88,59.14-1.29,120.29-2.63,180.58,7.92,40.19,7,80.95,19.52,120.37,31.59,39.24,12,79.82,24.45,119.63,31.41,71.39,12.5,149.51,9.07,238.84-10.47,26.61-5.82,53.69-12.93,79.88-19.81,52.57-13.79,106.92-28.06,160.5-32.75,76.26-6.68,151.46,5,240.91,24.56,80.06,17.51,161.15,38.8,200.12,49l40,10.5-1.53,5.8-40-10.5c-38.93-10.22-119.94-31.48-199.88-49-88.91-19.45-163.59-31.05-239.09-24.44-53.08,4.64-107.18,18.84-159.5,32.58-26.25,6.89-53.4,14-80.12,19.86-90.11,19.71-169,23.15-241.16,10.52-40.19-7-80.94-19.51-120.36-31.58-39.24-12-79.83-24.45-119.64-31.42-59.71-10.45-120.57-9.12-179.42-7.83-19.68.43-40,.88-60.06.88-32.06,0-64.62-1.14-96.11-2.24-47.14-1.65-95.88-3.36-143.76-1.26-69,3-142.84,13.79-239.49,34.93-10,2.18-20.16,4.46-30,6.67-63.19,14.17-128.37,28.78-192.95,28.78q-8.92,0-17.84-.38c-37.54-1.65-75.6-8.75-112.41-15.62-41.82-7.81-85.06-15.88-127.45-15.88-48.91,0-98.81,10.75-147.06,21.14-30.32,6.53-61.66,13.28-92.55,17.33-44.63,5.86-89.91,6.3-133.7,6.73-34.9.33-71,.69-106.43,3.79-22.79,2-46,5.18-68.43,8.27-56.41,7.75-114.74,15.78-172.35,5.69-36.64-6.41-73.74-20.28-109.62-33.69-42.72-16-86.9-32.49-130.12-36.27-63.38-5.54-128.16,16-190.8,36.82-15.75,5.23-32,10.65-48.06,15.56-75.57,23.14-154.28,38.06-240.62,45.62C1888.84,187.59,1859.54,189,1832.06,189Z"/></clipPath><linearGradient id="linear-gradient-4" x1="2022.97" y1="573.05" x2="2022.97" y2="574.05" gradientTransform="matrix(-5760, 0, 0, 186.19, 11655167.37, -106694.74)" gradientUnits="userSpaceOnUse"><stop offset="0" stop-color="#f8cbbc"/><stop offset="1" stop-color="#f4b6a1"/></linearGradient></defs><g id="Layer_3" data-name="Layer 3"><path class="cls-1" d="M1832.06,189c-56.7,0-105.69-6-152.51-18.27-32.13-8.44-64.74-20.42-96.27-32-47-17.28-95.68-35.16-143.35-41.42-42-5.52-85-2.2-126.44,1-37.14,2.87-75.54,5.83-113.43,2.52-46-4-92.63-17.43-137.72-30.39-33.63-9.67-68.41-19.67-102.54-25.65-74.93-13.11-153-8.55-238.72,13.95C685.63,68,649.53,80.32,614.62,92.2c-43.78,14.9-89,30.3-133.66,40.06-82.51,18.05-163.73,16.86-241.41-3.53C159.22,107.64,78,65,38.92,44.48l-40-21,2.79-5.31,40,21c38.85,20.4,119.7,62.84,199.37,83.76,76.75,20.14,157,21.31,238.6,3.47,44.27-9.69,89.38-25,133-39.88,35-11.91,71.22-24.23,106.87-33.59C806.11,30.21,885,25.61,960.83,38.87c34.45,6,69.39,16.08,103.17,25.79,44.81,12.88,91.15,26.2,136.58,30.18,37.4,3.27,75.55.33,112.45-2.52,41.79-3.23,85-6.57,127.68-1,48.33,6.35,97.29,24.34,144.64,41.74,31.4,11.54,63.87,23.47,95.73,31.84,68.81,18.06,142.51,22.35,239,13.91,85.91-7.52,164.22-22.36,239.38-45.38,16-4.89,32.21-10.29,47.93-15.52,63.22-21,128.59-42.76,193.21-37.1,44,3.85,88.6,20.51,131.7,36.63,35.62,13.31,72.46,27.09,108.55,33.4,56.68,9.92,114.55,2,170.51-5.73,22.51-3.09,45.78-6.29,68.72-8.3,35.67-3.12,71.88-3.47,106.89-3.81,43.62-.43,88.71-.87,133-6.68,30.64-4,61.87-10.74,92.06-17.25,48.56-10.46,98.78-21.27,148.33-21.27,42.94,0,86.46,8.12,128.55,16,36.6,6.83,74.46,13.9,111.58,15.52,69.59,3,140.57-12.87,209.21-28.26,9.84-2.2,20-4.48,30-6.67,97-21.22,171.18-32,240.51-35.07,48.13-2.1,97-.39,144.24,1.26,31.44,1.1,63.95,2.24,95.9,2.24,20,0,40.28-.45,59.93-.88,59.14-1.29,120.29-2.63,180.58,7.92,40.19,7,80.95,19.52,120.37,31.59,39.24,12,79.82,24.45,119.63,31.41,71.39,12.5,149.51,9.07,238.84-10.47,26.61-5.82,53.69-12.93,79.88-19.81,52.57-13.79,106.92-28.06,160.5-32.75,76.26-6.68,151.46,5,240.91,24.56,80.06,17.51,161.15,38.8,200.12,49l40,10.5-1.53,5.8-40-10.5c-38.93-10.22-119.94-31.48-199.88-49-88.91-19.45-163.59-31.05-239.09-24.44-53.08,4.64-107.18,18.84-159.5,32.58-26.25,6.89-53.4,14-80.12,19.86-90.11,19.71-169,23.15-241.16,10.52-40.19-7-80.94-19.51-120.36-31.58-39.24-12-79.83-24.45-119.64-31.42-59.71-10.45-120.57-9.12-179.42-7.83-19.68.43-40,.88-60.06.88-32.06,0-64.62-1.14-96.11-2.24-47.14-1.65-95.88-3.36-143.76-1.26-69,3-142.84,13.79-239.49,34.93-10,2.18-20.16,4.46-30,6.67-63.19,14.17-128.37,28.78-192.95,28.78q-8.92,0-17.84-.38c-37.54-1.65-75.6-8.75-112.41-15.62-41.82-7.81-85.06-15.88-127.45-15.88-48.91,0-98.81,10.75-147.06,21.14-30.32,6.53-61.66,13.28-92.55,17.33-44.63,5.86-89.91,6.3-133.7,6.73-34.9.33-71,.69-106.43,3.79-22.79,2-46,5.18-68.43,8.27-56.41,7.75-114.74,15.78-172.35,5.69-36.64-6.41-73.74-20.28-109.62-33.69-42.72-16-86.9-32.49-130.12-36.27-63.38-5.54-128.16,16-190.8,36.82-15.75,5.23-32,10.65-48.06,15.56-75.57,23.14-154.28,38.06-240.62,45.62C1888.84,187.59,1859.54,189,1832.06,189Z"/><g class="cls-2"><g class="cls-3"><path class="cls-1" d="M1832.06,189c-56.7,0-105.69-6-152.51-18.27-32.13-8.44-64.74-20.42-96.27-32-47-17.28-95.68-35.16-143.35-41.42-42-5.52-85-2.2-126.44,1-37.14,2.87-75.54,5.83-113.43,2.52-46-4-92.63-17.43-137.72-30.39-33.63-9.67-68.41-19.67-102.54-25.65-74.93-13.11-153-8.55-238.72,13.95C685.63,68,649.53,80.32,614.62,92.2c-43.78,14.9-89,30.3-133.66,40.06-82.51,18.05-163.73,16.86-241.41-3.53C159.22,107.64,78,65,38.92,44.48l-40-21,2.79-5.31,40,21c38.85,20.4,119.7,62.84,199.37,83.76,76.75,20.14,157,21.31,238.6,3.47,44.27-9.69,89.38-25,133-39.88,35-11.91,71.22-24.23,106.87-33.59C806.11,30.21,885,25.61,960.83,38.87c34.45,6,69.39,16.08,103.17,25.79,44.81,12.88,91.15,26.2,136.58,30.18,37.4,3.27,75.55.33,112.45-2.52,41.79-3.23,85-6.57,127.68-1,48.33,6.35,97.29,24.34,144.64,41.74,31.4,11.54,63.87,23.47,95.73,31.84,68.81,18.06,142.51,22.35,239,13.91,85.91-7.52,164.22-22.36,239.38-45.38,16-4.89,32.21-10.29,47.93-15.52,63.22-21,128.59-42.76,193.21-37.1,44,3.85,88.6,20.51,131.7,36.63,35.62,13.31,72.46,27.09,108.55,33.4,56.68,9.92,114.55,2,170.51-5.73,22.51-3.09,45.78-6.29,68.72-8.3,35.67-3.12,71.88-3.47,106.89-3.81,43.62-.43,88.71-.87,133-6.68,30.64-4,61.87-10.74,92.06-17.25,48.56-10.46,98.78-21.27,148.33-21.27,42.94,0,86.46,8.12,128.55,16,36.6,6.83,74.46,13.9,111.58,15.52,69.59,3,140.57-12.87,209.21-28.26,9.84-2.2,20-4.48,30-6.67,97-21.22,171.18-32,240.51-35.07,48.13-2.1,97-.39,144.24,1.26,31.44,1.1,63.95,2.24,95.9,2.24,20,0,40.28-.45,59.93-.88,59.14-1.29,120.29-2.63,180.58,7.92,40.19,7,80.95,19.52,120.37,31.59,39.24,12,79.82,24.45,119.63,31.41,71.39,12.5,149.51,9.07,238.84-10.47,26.61-5.82,53.69-12.93,79.88-19.81,52.57-13.79,106.92-28.06,160.5-32.75,76.26-6.68,151.46,5,240.91,24.56,80.06,17.51,161.15,38.8,200.12,49l40,10.5-1.53,5.8-40-10.5c-38.93-10.22-119.94-31.48-199.88-49-88.91-19.45-163.59-31.05-239.09-24.44-53.08,4.64-107.18,18.84-159.5,32.58-26.25,6.89-53.4,14-80.12,19.86-90.11,19.71-169,23.15-241.16,10.52-40.19-7-80.94-19.51-120.36-31.58-39.24-12-79.83-24.45-119.64-31.42-59.71-10.45-120.57-9.12-179.42-7.83-19.68.43-40,.88-60.06.88-32.06,0-64.62-1.14-96.11-2.24-47.14-1.65-95.88-3.36-143.76-1.26-69,3-142.84,13.79-239.49,34.93-10,2.18-20.16,4.46-30,6.67-63.19,14.17-128.37,28.78-192.95,28.78q-8.92,0-17.84-.38c-37.54-1.65-75.6-8.75-112.41-15.62-41.82-7.81-85.06-15.88-127.45-15.88-48.91,0-98.81,10.75-147.06,21.14-30.32,6.53-61.66,13.28-92.55,17.33-44.63,5.86-89.91,6.3-133.7,6.73-34.9.33-71,.69-106.43,3.79-22.79,2-46,5.18-68.43,8.27-56.41,7.75-114.74,15.78-172.35,5.69-36.64-6.41-73.74-20.28-109.62-33.69-42.72-16-86.9-32.49-130.12-36.27-63.38-5.54-128.16,16-190.8,36.82-15.75,5.23-32,10.65-48.06,15.56-75.57,23.14-154.28,38.06-240.62,45.62C1888.84,187.59,1859.54,189,1832.06,189Z"/></g></g><path class="cls-4" d="M5760.32,147l-40-10.5c-40-10.5-120-31.5-200-49s-160-31.5-240-24.5-160,35-240,52.5-160,24.5-240,10.5-160-49-240-63-160-7-240-7-160-7-240-3.5-160,17.5-240,35-160,38.5-240,35-160-31.5-240-31.5-160,28-240,38.5-160,3.5-240,10.5-160,28-240,14-160-63-240-70-160,28-240,52.5-160,38.5-240,45.5-160,7-240-14-160-63-240-73.5-160,10.5-240,3.5-160-42-240-56-160-7-240,14-160,56-240,73.5-160,17.5-240-3.5-160-63-200-84L.32,21V0h5760Z"/></g></svg>